<svg xmlns="http://www.w3.org/2000/svg" xmlns:xlink="http://www.w3.org/1999/xlink" width="500" zoomAndPan="magnify" viewBox="0 0 375 374.999991" height="500" preserveAspectRatio="xMidYMid meet" version="1.0"><rect x="-37.5" width="450" fill="#ffffff" y="-37.499999" height="449.999989" fill-opacity="1"/><rect x="-37.5" width="450" fill="#ffffff" y="-37.499999" height="449.999989" fill-opacity="1"/><rect x="-37.5" width="450" fill="#ffffff" y="-37.499999" height="449.999989" fill-opacity="1"/><rect x="-37.5" width="450" fill="#ffffff" y="-37.499999" height="449.999989" fill-opacity="1"/><path fill="#f89a1a" d="M 177.652344 255.144531 C 158.144531 279.070312 146.863281 267.59375 129.105469 300.222656 C 119.828125 317.253906 80.664062 334.917969 88.277344 323.855469 C 124.285156 271.511719 82.105469 269.125 108.855469 221.457031 C 123.816406 194.8125 153.046875 195.050781 171.121094 207.152344 C 189.203125 219.257812 197.160156 231.222656 177.652344 255.144531 " fill-opacity="1" fill-rule="nonzero"/><path fill="#fabd16" d="M 163.066406 256.675781 C 145.007812 269.105469 88.277344 323.855469 108.757812 298.0625 C 125.289062 277.253906 105.683594 247.757812 121.242188 228.667969 C 136.8125 209.578125 154.167969 206.042969 165.71875 213.773438 C 177.269531 221.515625 183.679688 242.492188 163.066406 256.675781 " fill-opacity="1" fill-rule="nonzero"/><path fill="#cc3322" d="M 206.667969 286.664062 C 206.667969 286.664062 200.1875 291.730469 210.210938 296.84375 C 220.226562 301.953125 261.472656 280.589844 272.472656 267.09375 C 298.007812 235.773438 288.167969 201.023438 251.246094 165.476562 L 216.761719 207.765625 C 219.84375 226.960938 238.859375 255.789062 206.667969 286.664062 " fill-opacity="1" fill-rule="nonzero"/><path fill="#cc3322" d="M 76.53125 199.511719 C 76.53125 199.511719 73.082031 206.613281 64.753906 199.429688 C 56.425781 192.253906 66.847656 150.25 77.847656 136.761719 C 103.386719 105.4375 142.933594 103.761719 191.273438 125.316406 L 156.789062 167.605469 C 135.632812 170.570312 99.640625 162.558594 76.53125 199.511719 " fill-opacity="1" fill-rule="nonzero"/><path fill="#43bcbb" d="M 202.957031 248.050781 C 216.554688 246.203125 247.992188 231.53125 261.445312 215.035156 C 318.203125 145.425781 311.789062 53.878906 301.644531 47.085938 C 291.496094 40.289062 193.046875 61.609375 136.289062 131.222656 C 122.839844 147.714844 116.117188 176.019531 118.636719 191.578125 C 121.15625 207.136719 189.355469 249.890625 202.957031 248.050781 " fill-opacity="1" fill-rule="nonzero"/><path fill="#fabd16" d="M 308.355469 84.324219 C 290.933594 75.464844 274.855469 64.695312 260.390625 52.199219 C 255.0625 53.761719 249.398438 55.621094 243.496094 57.796875 C 262.199219 75.0625 283.714844 89.46875 307.417969 100.601562 C 307.976562 94.851562 308.277344 89.398438 308.355469 84.324219 " fill-opacity="1" fill-rule="nonzero"/><path fill="#f36820" d="M 308.363281 79.503906 C 308.335938 77.234375 308.257812 75.0625 308.144531 72.980469 C 295.4375 66.023438 283.488281 58.015625 272.417969 49.050781 C 270.191406 49.5625 267.875 50.140625 265.476562 50.78125 C 278.578125 61.753906 292.941406 71.375 308.363281 79.503906 " fill-opacity="1" fill-rule="nonzero"/><path fill="#328b8c" d="M 271.609375 139.71875 C 258.695312 155.5625 235.820312 160.089844 220.507812 149.839844 C 205.203125 139.59375 203.269531 118.445312 216.1875 102.605469 C 229.105469 86.761719 251.984375 82.226562 267.292969 92.476562 C 282.589844 102.722656 284.53125 123.875 271.609375 139.71875 " fill-opacity="1" fill-rule="nonzero"/><path fill="#fabd16" d="M 270.644531 136.832031 C 257.726562 152.675781 234.847656 157.207031 219.546875 146.960938 C 204.242188 136.710938 202.304688 115.5625 215.226562 99.714844 C 228.136719 83.878906 251.019531 79.339844 266.324219 89.59375 C 281.628906 99.835938 283.5625 120.992188 270.644531 136.832031 " fill-opacity="1" fill-rule="nonzero"/><path fill="#ffffff" d="M 262.0625 131.085938 C 253.148438 142.019531 237.351562 145.148438 226.792969 138.074219 C 216.226562 131 214.890625 116.402344 223.808594 105.464844 C 232.722656 94.527344 248.515625 91.398438 259.078125 98.472656 C 269.640625 105.550781 270.980469 120.148438 262.0625 131.085938 " fill-opacity="1" fill-rule="nonzero"/><path fill="#b88a10" d="M 264.644531 96.09375 C 263.546875 97.433594 261.613281 97.820312 260.320312 96.953125 C 259.027344 96.085938 258.867188 94.296875 259.953125 92.953125 C 261.050781 91.617188 262.984375 91.230469 264.273438 92.101562 C 265.570312 92.964844 265.730469 94.757812 264.644531 96.09375 " fill-opacity="1" fill-rule="nonzero"/><path fill="#b88a10" d="M 225.910156 143.589844 C 224.820312 144.925781 222.886719 145.316406 221.59375 144.445312 C 220.292969 143.582031 220.136719 141.792969 221.226562 140.453125 C 222.320312 139.113281 224.257812 138.726562 225.546875 139.59375 C 226.847656 140.460938 227.003906 142.25 225.910156 143.589844 " fill-opacity="1" fill-rule="nonzero"/><path fill="#b88a10" d="M 221.96875 100.484375 C 223.261719 101.351562 223.429688 103.140625 222.335938 104.476562 C 221.242188 105.820312 219.304688 106.199219 218.015625 105.332031 C 216.722656 104.46875 216.558594 102.679688 217.65625 101.335938 C 218.742188 100 220.675781 99.617188 221.96875 100.484375 " fill-opacity="1" fill-rule="nonzero"/><path fill="#b88a10" d="M 267.855469 131.214844 C 269.148438 132.078125 269.316406 133.867188 268.222656 135.207031 C 267.125 136.546875 265.1875 136.929688 263.898438 136.066406 C 262.601562 135.195312 262.441406 133.410156 263.535156 132.070312 C 264.625 130.730469 266.5625 130.34375 267.855469 131.214844 " fill-opacity="1" fill-rule="nonzero"/><path fill="#b88a10" d="M 243.457031 90.011719 C 243.605469 91.570312 242.351562 93.105469 240.660156 93.445312 C 238.980469 93.78125 237.488281 92.78125 237.351562 91.222656 C 237.207031 89.664062 238.457031 88.121094 240.144531 87.792969 C 241.832031 87.457031 243.324219 88.449219 243.457031 90.011719 " fill-opacity="1" fill-rule="nonzero"/><path fill="#b88a10" d="M 248.519531 145.324219 C 248.664062 146.882812 247.40625 148.417969 245.722656 148.753906 C 244.039062 149.089844 242.546875 148.09375 242.402344 146.535156 C 242.261719 144.972656 243.519531 143.4375 245.207031 143.109375 C 246.898438 142.765625 248.382812 143.765625 248.519531 145.324219 " fill-opacity="1" fill-rule="nonzero"/><path fill="#b88a10" d="M 212.761719 121.375 C 214.453125 121.042969 215.933594 122.039062 216.074219 123.597656 C 216.214844 125.15625 214.96875 126.691406 213.277344 127.027344 C 211.59375 127.359375 210.109375 126.363281 209.964844 124.808594 C 209.824219 123.246094 211.074219 121.710938 212.761719 121.375 " fill-opacity="1" fill-rule="nonzero"/><path fill="#b88a10" d="M 272.59375 109.523438 C 274.277344 109.1875 275.765625 110.179688 275.902344 111.742188 C 276.046875 113.300781 274.796875 114.835938 273.109375 115.171875 C 271.421875 115.503906 269.941406 114.511719 269.789062 112.949219 C 269.648438 111.390625 270.90625 109.851562 272.59375 109.523438 " fill-opacity="1" fill-rule="nonzero"/><path fill="#fabd16" d="M 131.480469 138.046875 C 126.09375 146.851562 122.203125 157.5 120.050781 167.589844 C 152.148438 195.824219 188.164062 219.96875 227.339844 239.527344 C 237.308594 234.703125 247.785156 228.257812 255.566406 221.164062 C 209.441406 199.703125 167.660156 171.714844 131.480469 138.046875 " fill-opacity="1" fill-rule="nonzero"/><path fill="#6dc4e4" d="M 119.476562 170.492188 C 118.925781 173.546875 118.535156 176.523438 118.320312 179.363281 C 147.628906 204.71875 180.25 226.589844 215.589844 244.5625 C 218.402344 243.519531 221.390625 242.285156 224.453125 240.882812 C 186.03125 221.867188 150.78125 198.234375 119.476562 170.492188 " fill-opacity="1" fill-rule="nonzero"/><path fill="#6dc4e4" d="M 265.382812 210.019531 C 266.878906 208.046875 268.339844 206.0625 269.742188 204.066406 C 223.523438 182.578125 181.664062 154.539062 145.421875 120.808594 C 143.726562 122.609375 142.058594 124.457031 140.421875 126.339844 C 176.886719 160.199219 218.953125 188.371094 265.382812 210.019531 " fill-opacity="1" fill-rule="nonzero"/><path fill="#ee4430" d="M 271.128906 202.078125 C 272.515625 200.054688 273.851562 198.015625 275.144531 195.96875 C 229.5625 174.667969 188.230469 146.984375 152.378906 113.746094 C 150.597656 115.46875 148.835938 117.226562 147.113281 119.023438 C 183.339844 152.59375 225.085938 180.542969 271.128906 202.078125 " fill-opacity="1" fill-rule="nonzero"/><path fill="#ee4430" d="M 144.191406 254.660156 C 144.191406 254.660156 138.441406 261.949219 130.683594 256.75 C 122.917969 251.550781 128.917969 244.429688 128.917969 244.429688 L 166.039062 166.601562 C 172.308594 158.910156 191.351562 158.949219 203.691406 167.214844 C 216.027344 175.476562 221.660156 191.960938 215.386719 199.648438 L 144.191406 254.660156 " fill-opacity="1" fill-rule="nonzero"/></svg>