<svg xmlns="http://www.w3.org/2000/svg" xmlns:xlink="http://www.w3.org/1999/xlink" width="500" zoomAndPan="magnify" viewBox="0 0 375 374.999991" height="500" preserveAspectRatio="xMidYMid meet" version="1.0"><rect x="-37.5" width="450" fill="#ffffff" y="-37.499999" height="449.999989" fill-opacity="1"/><rect x="-37.5" width="450" fill="#ffffff" y="-37.499999" height="449.999989" fill-opacity="1"/><rect x="-37.5" width="450" fill="#ffffff" y="-37.499999" height="449.999989" fill-opacity="1"/><rect x="-37.5" width="450" fill="#ffffff" y="-37.499999" height="449.999989" fill-opacity="1"/><path fill="#f89a1a" d="M 174.917969 275.082031 C 149.546875 306.128906 134.867188 291.234375 111.765625 333.578125 C 99.699219 355.6875 48.75 378.609375 58.65625 364.253906 C 105.496094 296.324219 50.628906 293.226562 85.425781 231.363281 C 104.890625 196.785156 142.914062 197.09375 166.421875 212.796875 C 189.945312 228.507812 200.296875 244.035156 174.917969 275.082031 " fill-opacity="1" fill-rule="nonzero"/><path fill="#fabd16" d="M 155.949219 277.070312 C 132.457031 293.203125 58.65625 364.253906 85.296875 330.78125 C 106.800781 303.773438 81.300781 265.492188 101.539062 240.722656 C 121.792969 215.945312 144.371094 211.359375 159.398438 221.394531 C 174.421875 231.441406 182.761719 258.660156 155.949219 277.070312 " fill-opacity="1" fill-rule="nonzero"/><path fill="#cc3322" d="M 212.664062 315.984375 C 212.664062 315.984375 204.234375 322.5625 217.273438 329.195312 C 230.300781 335.828125 283.960938 308.101562 298.265625 290.589844 C 331.488281 249.945312 318.683594 204.847656 270.65625 158.714844 L 225.792969 213.597656 C 229.804688 238.507812 254.542969 275.921875 212.664062 315.984375 " fill-opacity="1" fill-rule="nonzero"/><path fill="#cc3322" d="M 43.378906 202.886719 C 43.378906 202.886719 38.890625 212.097656 28.054688 202.78125 C 17.222656 193.464844 30.78125 138.953125 45.089844 121.449219 C 78.308594 80.800781 129.757812 78.625 192.636719 106.597656 L 147.777344 161.476562 C 120.257812 165.328125 73.4375 154.929688 43.378906 202.886719 " fill-opacity="1" fill-rule="nonzero"/><path fill="#43bcbb" d="M 207.839844 265.875 C 225.527344 263.480469 266.421875 244.441406 283.921875 223.03125 C 357.757812 132.691406 349.414062 13.890625 336.214844 5.074219 C 323.015625 -3.75 194.949219 23.921875 121.113281 114.257812 C 103.621094 135.664062 94.871094 172.398438 98.148438 192.589844 C 101.425781 212.78125 190.144531 268.261719 207.839844 265.875 " fill-opacity="1" fill-rule="nonzero"/><path fill="#fabd16" d="M 344.945312 53.402344 C 322.285156 41.902344 301.367188 27.925781 282.550781 11.710938 C 275.621094 13.738281 268.25 16.148438 260.574219 18.972656 C 284.902344 41.378906 312.894531 60.074219 343.726562 74.523438 C 344.457031 67.0625 344.847656 59.984375 344.945312 53.402344 " fill-opacity="1" fill-rule="nonzero"/><path fill="#f36820" d="M 344.957031 47.140625 C 344.917969 44.199219 344.820312 41.378906 344.671875 38.675781 C 328.144531 29.652344 312.597656 19.257812 298.195312 7.621094 C 295.300781 8.289062 292.285156 9.035156 289.167969 9.867188 C 306.210938 24.109375 324.894531 36.597656 344.957031 47.140625 " fill-opacity="1" fill-rule="nonzero"/><path fill="#328b8c" d="M 297.144531 125.289062 C 280.34375 145.851562 250.585938 151.722656 230.671875 138.421875 C 210.761719 125.125 208.246094 97.679688 225.046875 77.121094 C 241.851562 56.5625 271.613281 50.675781 291.53125 63.980469 C 311.433594 77.273438 313.957031 104.726562 297.144531 125.289062 " fill-opacity="1" fill-rule="nonzero"/><path fill="#fabd16" d="M 295.890625 121.539062 C 279.085938 142.105469 249.324219 147.980469 229.417969 134.683594 C 209.511719 121.382812 206.988281 93.9375 223.796875 73.371094 C 240.59375 52.820312 270.363281 46.933594 290.273438 60.234375 C 310.179688 73.527344 312.695312 100.988281 295.890625 121.539062 " fill-opacity="1" fill-rule="nonzero"/><path fill="#ffffff" d="M 284.730469 114.085938 C 273.132812 128.277344 252.582031 132.335938 238.84375 123.152344 C 225.097656 113.972656 223.363281 95.027344 234.960938 80.835938 C 246.558594 66.640625 267.101562 62.578125 280.847656 71.761719 C 294.585938 80.945312 296.324219 99.890625 284.730469 114.085938 " fill-opacity="1" fill-rule="nonzero"/><path fill="#b88a10" d="M 288.085938 68.675781 C 286.65625 70.410156 284.140625 70.914062 282.460938 69.789062 C 280.777344 68.660156 280.570312 66.34375 281.984375 64.597656 C 283.410156 62.863281 285.925781 62.363281 287.605469 63.492188 C 289.292969 64.613281 289.5 66.9375 288.085938 68.675781 " fill-opacity="1" fill-rule="nonzero"/><path fill="#b88a10" d="M 237.699219 130.308594 C 236.277344 132.046875 233.765625 132.550781 232.082031 131.421875 C 230.390625 130.300781 230.1875 127.976562 231.605469 126.242188 C 233.023438 124.5 235.546875 124 237.226562 125.125 C 238.917969 126.25 239.121094 128.574219 237.699219 130.308594 " fill-opacity="1" fill-rule="nonzero"/><path fill="#b88a10" d="M 232.570312 74.371094 C 234.253906 75.496094 234.46875 77.820312 233.046875 79.550781 C 231.628906 81.296875 229.105469 81.789062 227.425781 80.664062 C 225.742188 79.542969 225.53125 77.21875 226.957031 75.480469 C 228.375 73.742188 230.886719 73.246094 232.570312 74.371094 " fill-opacity="1" fill-rule="nonzero"/><path fill="#b88a10" d="M 292.265625 114.25 C 293.941406 115.371094 294.164062 117.691406 292.742188 119.433594 C 291.3125 121.167969 288.792969 121.667969 287.117188 120.546875 C 285.429688 119.414062 285.21875 117.101562 286.644531 115.359375 C 288.058594 113.621094 290.578125 113.121094 292.265625 114.25 " fill-opacity="1" fill-rule="nonzero"/><path fill="#b88a10" d="M 260.523438 60.777344 C 260.714844 62.800781 259.085938 64.796875 256.886719 65.234375 C 254.699219 65.671875 252.757812 64.375 252.582031 62.351562 C 252.390625 60.328125 254.019531 58.328125 256.214844 57.898438 C 258.40625 57.464844 260.347656 58.753906 260.523438 60.777344 " fill-opacity="1" fill-rule="nonzero"/><path fill="#b88a10" d="M 267.109375 132.5625 C 267.296875 134.585938 265.664062 136.578125 263.472656 137.011719 C 261.277344 137.449219 259.34375 136.15625 259.152344 134.132812 C 258.96875 132.105469 260.605469 130.113281 262.800781 129.683594 C 265 129.242188 266.929688 130.539062 267.109375 132.5625 " fill-opacity="1" fill-rule="nonzero"/><path fill="#b88a10" d="M 220.589844 101.484375 C 222.792969 101.050781 224.71875 102.34375 224.902344 104.367188 C 225.085938 106.390625 223.460938 108.382812 221.261719 108.820312 C 219.074219 109.246094 217.140625 107.957031 216.953125 105.941406 C 216.773438 103.910156 218.398438 101.917969 220.589844 101.484375 " fill-opacity="1" fill-rule="nonzero"/><path fill="#b88a10" d="M 298.429688 86.101562 C 300.617188 85.664062 302.554688 86.953125 302.730469 88.980469 C 302.917969 91.003906 301.292969 92.992188 299.09375 93.429688 C 296.902344 93.863281 294.976562 92.574219 294.78125 90.546875 C 294.59375 88.527344 296.230469 86.53125 298.429688 86.101562 " fill-opacity="1" fill-rule="nonzero"/><path fill="#fabd16" d="M 114.859375 123.121094 C 107.851562 134.542969 102.785156 148.363281 99.992188 161.457031 C 141.746094 198.097656 188.59375 229.429688 239.558594 254.816406 C 252.523438 248.550781 266.152344 240.1875 276.273438 230.984375 C 216.273438 203.132812 161.921875 166.808594 114.859375 123.121094 " fill-opacity="1" fill-rule="nonzero"/><path fill="#6dc4e4" d="M 99.242188 165.226562 C 98.527344 169.1875 98.015625 173.054688 97.734375 176.734375 C 135.867188 209.644531 178.300781 238.023438 224.269531 261.347656 C 227.929688 259.996094 231.820312 258.390625 235.804688 256.574219 C 185.820312 231.894531 139.964844 201.226562 99.242188 165.226562 " fill-opacity="1" fill-rule="nonzero"/><path fill="#6dc4e4" d="M 289.042969 216.519531 C 290.996094 213.960938 292.894531 211.382812 294.714844 208.792969 C 234.59375 180.90625 180.140625 144.519531 132.992188 100.746094 C 130.785156 103.085938 128.621094 105.480469 126.488281 107.921875 C 173.925781 151.863281 228.648438 188.429688 289.042969 216.519531 " fill-opacity="1" fill-rule="nonzero"/><path fill="#ee4430" d="M 296.519531 206.214844 C 298.328125 203.585938 300.0625 200.941406 301.746094 198.285156 C 242.449219 170.640625 188.683594 134.71875 142.042969 91.585938 C 139.726562 93.816406 137.433594 96.097656 135.191406 98.429688 C 182.320312 141.992188 236.628906 178.269531 296.519531 206.214844 " fill-opacity="1" fill-rule="nonzero"/><path fill="#ee4430" d="M 131.394531 274.449219 C 131.394531 274.449219 123.914062 283.914062 113.820312 277.164062 C 103.71875 270.414062 111.523438 261.179688 111.523438 261.179688 L 159.8125 160.175781 C 167.96875 150.195312 192.742188 150.242188 208.792969 160.96875 C 224.84375 171.695312 232.167969 193.082031 224.007812 203.058594 L 131.394531 274.449219 " fill-opacity="1" fill-rule="nonzero"/></svg>