<svg xmlns="http://www.w3.org/2000/svg" xmlns:xlink="http://www.w3.org/1999/xlink" width="500" zoomAndPan="magnify" viewBox="0 0 375 149.999998" height="200" preserveAspectRatio="xMidYMid meet" version="1.0"><defs><clipPath id="id1"><path d="M 140 8.867188 L 237 8.867188 L 237 86 L 140 86 Z M 140 8.867188 " clip-rule="nonzero"/></clipPath><clipPath id="id2"><path d="M 23 41 L 351 41 L 351 140.867188 L 23 140.867188 Z M 23 41 " clip-rule="nonzero"/></clipPath><clipPath id="id3"><path d="M 23 72 L 351 72 L 351 140.867188 L 23 140.867188 Z M 23 72 " clip-rule="nonzero"/></clipPath><clipPath id="id4"><path d="M 101 117 L 276 117 L 276 140.867188 L 101 140.867188 Z M 101 117 " clip-rule="nonzero"/></clipPath><clipPath id="id5"><path d="M 128 125 L 250 125 L 250 140.867188 L 128 140.867188 Z M 128 125 " clip-rule="nonzero"/></clipPath></defs><rect x="-37.5" width="450" fill="#ffffff" y="-15" height="179.999997" fill-opacity="1"/><rect x="-37.5" width="450" fill="#ffffff" y="-15" height="179.999997" fill-opacity="1"/><rect x="-37.5" width="450" fill="#ffffff" y="-15" height="179.999997" fill-opacity="1"/><rect x="-37.5" width="450" fill="#ffffff" y="-15" height="179.999997" fill-opacity="1"/><g clip-path="url(#id1)"><path fill="#fdc169" d="M 236.058594 47.210938 C 236.058594 68.390625 214.738281 85.558594 188.4375 85.558594 C 162.140625 85.558594 140.816406 68.390625 140.816406 47.210938 C 140.816406 26.035156 162.140625 8.867188 188.4375 8.867188 C 214.738281 8.867188 236.058594 26.035156 236.058594 47.210938 Z M 236.058594 47.210938 " fill-opacity="1" fill-rule="nonzero"/></g><g clip-path="url(#id2)"><path fill="#2b0d44" d="M 346.480469 91.726562 C 352.535156 97.707031 352.03125 106.746094 344.90625 111.40625 C 327.523438 122.789062 285.40625 140.867188 193.25 140.867188 C 67.207031 140.867188 33.902344 119.707031 25.105469 108.761719 C 22.167969 105.101562 23.476562 100.324219 26.753906 96.96875 C 41.324219 82.046875 90.40625 41.3125 191.980469 41.3125 C 283.296875 41.3125 328.765625 74.234375 346.480469 91.726562 Z M 346.480469 91.726562 " fill-opacity="1" fill-rule="nonzero"/></g><g clip-path="url(#id3)"><path fill="#11698e" d="M 193.25 140.867188 C 285.480469 140.867188 327.59375 122.710938 344.949219 111.296875 C 352.046875 106.632812 352.527344 97.585938 346.496094 91.609375 C 345.46875 90.59375 344.355469 89.527344 343.140625 88.417969 C 343.140625 88.417969 290.1875 72.285156 191.980469 72.285156 C 88.1875 72.285156 35.910156 88.417969 35.910156 88.417969 C 32.007812 91.675781 28.976562 94.566406 26.75 96.851562 C 23.484375 100.207031 22.167969 104.992188 25.089844 108.648438 C 33.855469 119.617188 67.117188 140.867188 193.25 140.867188 Z M 193.25 140.867188 " fill-opacity="1" fill-rule="nonzero"/></g><g clip-path="url(#id4)"><path fill="#fd7014" d="M 275.300781 134.449219 C 253.757812 138.078125 226.757812 140.496094 193.058594 140.496094 C 155.242188 140.496094 125.785156 138.589844 102.835938 135.621094 C 101.660156 134.664062 101.042969 133.667969 101.042969 132.648438 C 101.042969 124.539062 140.195312 117.964844 188.496094 117.964844 C 236.796875 117.964844 275.949219 124.539062 275.949219 132.648438 C 275.949219 133.257812 275.730469 133.859375 275.300781 134.449219 Z M 275.300781 134.449219 " fill-opacity="1" fill-rule="evenodd"/></g><g clip-path="url(#id5)"><path fill="#fdc169" d="M 246.394531 138.179688 C 230.816406 139.640625 213.125 140.496094 193.058594 140.496094 C 169.515625 140.496094 149.210938 139.757812 131.699219 138.484375 C 129.574219 137.449219 128.417969 136.335938 128.417969 135.179688 C 128.417969 129.585938 155.429688 125.050781 188.75 125.050781 C 222.070312 125.050781 249.082031 129.585938 249.082031 135.179688 C 249.082031 136.222656 248.140625 137.230469 246.394531 138.179688 Z M 246.394531 138.179688 " fill-opacity="1" fill-rule="evenodd"/></g><path fill="#fd7014" d="M 195.453125 59.378906 C 195.453125 63.25 192.3125 66.386719 188.4375 66.386719 C 184.5625 66.386719 181.425781 63.25 181.425781 59.378906 C 181.425781 55.511719 184.5625 52.375 188.4375 52.375 C 192.3125 52.375 195.453125 55.511719 195.453125 59.378906 Z M 195.453125 59.378906 " fill-opacity="1" fill-rule="nonzero"/><path fill="#fd7014" d="M 271.507812 59.46875 C 273.886719 62.402344 274.261719 66.039062 272.335938 67.597656 C 270.414062 69.15625 266.925781 68.039062 264.542969 65.109375 C 262.164062 62.175781 261.792969 58.535156 263.714844 56.976562 C 265.636719 55.421875 269.128906 56.535156 271.507812 59.46875 Z M 271.507812 59.46875 " fill-opacity="1" fill-rule="nonzero"/><path fill="#fd7014" d="M 105.351562 59.46875 C 102.972656 62.402344 102.601562 66.039062 104.523438 67.597656 C 106.445312 69.15625 109.933594 68.039062 112.316406 65.109375 C 114.695312 62.175781 115.066406 58.535156 113.144531 56.976562 C 111.222656 55.421875 107.734375 56.535156 105.351562 59.46875 Z M 105.351562 59.46875 " fill-opacity="1" fill-rule="nonzero"/></svg>