<svg xmlns="http://www.w3.org/2000/svg" xmlns:xlink="http://www.w3.org/1999/xlink" width="500" zoomAndPan="magnify" viewBox="0 0 375 374.999991" height="500" preserveAspectRatio="xMidYMid meet" version="1.0"><defs><clipPath id="id1"><path d="M 137 116.214844 L 241 116.214844 L 241 200 L 137 200 Z M 137 116.214844 " clip-rule="nonzero"/></clipPath><clipPath id="id2"><path d="M 10 151 L 364 151 L 364 258.714844 L 10 258.714844 Z M 10 151 " clip-rule="nonzero"/></clipPath><clipPath id="id3"><path d="M 10 184 L 364 184 L 364 258.714844 L 10 258.714844 Z M 10 184 " clip-rule="nonzero"/></clipPath><clipPath id="id4"><path d="M 94 233 L 284 233 L 284 258.714844 L 94 258.714844 Z M 94 233 " clip-rule="nonzero"/></clipPath><clipPath id="id5"><path d="M 123 241 L 255 241 L 255 258.714844 L 123 258.714844 Z M 123 241 " clip-rule="nonzero"/></clipPath></defs><g clip-path="url(#id1)"><path fill="#fdc169" d="M 240.160156 157.613281 C 240.160156 180.476562 217.148438 199.007812 188.761719 199.007812 C 160.375 199.007812 137.359375 180.476562 137.359375 157.613281 C 137.359375 134.75 160.375 116.214844 188.761719 116.214844 C 217.148438 116.214844 240.160156 134.75 240.160156 157.613281 Z M 240.160156 157.613281 " fill-opacity="1" fill-rule="nonzero"/></g><g clip-path="url(#id2)"><path fill="#2b0d44" d="M 359.34375 205.667969 C 365.878906 212.125 365.335938 221.882812 357.648438 226.914062 C 338.882812 239.203125 293.421875 258.714844 193.953125 258.714844 C 57.910156 258.714844 21.960938 235.875 12.46875 224.054688 C 9.296875 220.109375 10.707031 214.949219 14.242188 211.328125 C 29.972656 195.21875 82.949219 151.246094 192.582031 151.246094 C 291.148438 151.246094 340.226562 186.785156 359.34375 205.667969 Z M 359.34375 205.667969 " fill-opacity="1" fill-rule="nonzero"/></g><g clip-path="url(#id3)"><path fill="#11698e" d="M 193.953125 258.714844 C 293.503906 258.714844 338.957031 239.117188 357.695312 226.796875 C 365.355469 221.761719 365.875 211.992188 359.359375 205.542969 C 358.253906 204.445312 357.050781 203.292969 355.738281 202.097656 C 355.738281 202.097656 298.585938 184.679688 192.582031 184.679688 C 80.554688 184.679688 24.128906 202.097656 24.128906 202.097656 C 19.914062 205.613281 16.640625 208.734375 14.238281 211.203125 C 10.714844 214.824219 9.292969 219.988281 12.445312 223.9375 C 21.910156 235.777344 57.808594 258.714844 193.953125 258.714844 Z M 193.953125 258.714844 " fill-opacity="1" fill-rule="nonzero"/></g><g clip-path="url(#id4)"><path fill="#fd7014" d="M 282.515625 251.789062 C 259.265625 255.703125 230.121094 258.316406 193.75 258.316406 C 152.929688 258.316406 121.136719 256.257812 96.367188 253.054688 C 95.097656 252.019531 94.429688 250.945312 94.429688 249.84375 C 94.429688 241.089844 136.691406 233.992188 188.824219 233.992188 C 240.957031 233.992188 283.21875 241.089844 283.21875 249.84375 C 283.21875 250.503906 282.980469 251.152344 282.515625 251.789062 Z M 282.515625 251.789062 " fill-opacity="1" fill-rule="evenodd"/></g><g clip-path="url(#id5)"><path fill="#fdc169" d="M 251.3125 255.816406 C 234.5 257.390625 215.40625 258.316406 193.75 258.316406 C 168.335938 258.316406 146.421875 257.519531 127.519531 256.144531 C 125.222656 255.027344 123.976562 253.828125 123.976562 252.578125 C 123.976562 246.539062 153.132812 241.644531 189.097656 241.644531 C 225.058594 241.644531 254.214844 246.539062 254.214844 252.578125 C 254.214844 253.703125 253.199219 254.792969 251.3125 255.816406 Z M 251.3125 255.816406 " fill-opacity="1" fill-rule="evenodd"/></g><path fill="#fd7014" d="M 196.332031 170.75 C 196.332031 174.925781 192.941406 178.3125 188.761719 178.3125 C 184.578125 178.3125 181.191406 174.925781 181.191406 170.75 C 181.191406 166.570312 184.578125 163.183594 188.761719 163.183594 C 192.941406 163.183594 196.332031 166.570312 196.332031 170.75 Z M 196.332031 170.75 " fill-opacity="1" fill-rule="nonzero"/><path fill="#fd7014" d="M 278.421875 170.84375 C 280.992188 174.007812 281.394531 177.9375 279.316406 179.621094 C 277.242188 181.300781 273.476562 180.097656 270.90625 176.929688 C 268.335938 173.765625 267.9375 169.835938 270.011719 168.15625 C 272.085938 166.472656 275.851562 167.679688 278.421875 170.84375 Z M 278.421875 170.84375 " fill-opacity="1" fill-rule="nonzero"/><path fill="#fd7014" d="M 99.082031 170.84375 C 96.511719 174.007812 96.109375 177.9375 98.1875 179.621094 C 100.261719 181.300781 104.027344 180.097656 106.597656 176.929688 C 109.167969 173.765625 109.566406 169.835938 107.492188 168.15625 C 105.417969 166.472656 101.648438 167.679688 99.082031 170.84375 Z M 99.082031 170.84375 " fill-opacity="1" fill-rule="nonzero"/></svg>